<svg width="177" height="26" viewBox="0 0 177 26" fill="none" xmlns="http://www.w3.org/2000/svg"><path d="M14.47 3.52a.944.944 0 0 0-.754-.516.931.931 0 0 0-.836.371l-2.117 2.828-.082-.629a.944.944 0 0 0-.418-.667.928.928 0 0 0-.777-.114l-1.383.41-1.36-1.582a.936.936 0 0 0-1.422 0L3.893 5.285l-1.835-.23a.938.938 0 0 0-1.023 1.164l1.585 6.078-1.2.8a.937.937 0 0 0 .063 1.598l4.176 2.32-4.383 4.383A.937.937 0 0 0 2.6 22.722l4.387-4.379 2.32 4.176a.934.934 0 0 0 1.598.062l.8-1.199 6.078 1.586a.937.937 0 0 0 .856-.203.936.936 0 0 0 .312-.82l-.21-1.672a.323.323 0 0 1 .105-.277l1.535-1.317a.936.936 0 0 0 0-1.422l-1.586-1.359.41-1.383a.936.936 0 0 0-.781-1.195l-.625-.082 2.828-2.12a.94.94 0 0 0-.145-1.59l-1.41-.708a.314.314 0 0 1-.16-.367l.883-3.093a.937.937 0 0 0-1.16-1.16l-3.094.89a.316.316 0 0 1-.367-.16l-.703-1.41ZM8.365 16.965l4.898-4.899a.937.937 0 0 0-1.324-1.324l-4.902 4.894-3.297-1.831.106-.07a1.566 1.566 0 0 0 .644-1.696L3.197 7.086l.965.121a.937.937 0 0 0 .828-.32l1.043-1.215 1.043 1.215a.94.94 0 0 0 .98.289l.906-.27.235 1.828c.047.38.32.692.691.79a.934.934 0 0 0 .989-.344l2.597-3.465.027.055a2.183 2.183 0 0 0 2.555 1.125l1.473-.422-.422 1.472a2.19 2.19 0 0 0 1.125 2.559l.054.027-3.464 2.598a.939.939 0 0 0-.344.988c.098.367.41.64.789.691l1.828.235-.27.906a.94.94 0 0 0 .29.98l1.214 1.043-.707.606a2.176 2.176 0 0 0-.746 1.933l.04.301-4.954-1.297a1.564 1.564 0 0 0-1.695.645l-.07.105-1.832-3.3Z" fill="#0D001D"/><path d="M14.47 3.52a.944.944 0 0 0-.754-.516.931.931 0 0 0-.836.371l-2.117 2.828-.082-.629a.944.944 0 0 0-.418-.667.928.928 0 0 0-.777-.114l-1.383.41-1.36-1.582a.936.936 0 0 0-1.422 0L3.893 5.285l-1.835-.23a.938.938 0 0 0-1.023 1.164l1.585 6.078-1.2.8a.937.937 0 0 0 .063 1.598l4.176 2.32-4.383 4.383A.937.937 0 0 0 2.6 22.722l4.387-4.379 2.32 4.176a.934.934 0 0 0 1.598.062l.8-1.199 6.078 1.586a.937.937 0 0 0 .856-.203.936.936 0 0 0 .312-.82l-.21-1.672a.323.323 0 0 1 .105-.277l1.535-1.317a.936.936 0 0 0 0-1.422l-1.586-1.359.41-1.383a.936.936 0 0 0-.781-1.195l-.625-.082 2.828-2.12a.94.94 0 0 0-.145-1.59l-1.41-.708a.314.314 0 0 1-.16-.367l.883-3.093a.937.937 0 0 0-1.16-1.16l-3.094.89a.316.316 0 0 1-.367-.16l-.703-1.41ZM8.365 16.965l4.898-4.899a.937.937 0 0 0-1.324-1.324l-4.902 4.894-3.297-1.831.106-.07a1.566 1.566 0 0 0 .644-1.696L3.197 7.086l.965.121a.937.937 0 0 0 .828-.32l1.043-1.215 1.043 1.215a.94.94 0 0 0 .98.289l.906-.27.235 1.828c.047.38.32.692.691.79a.934.934 0 0 0 .989-.344l2.597-3.465.027.055a2.183 2.183 0 0 0 2.555 1.125l1.473-.422-.422 1.472a2.19 2.19 0 0 0 1.125 2.559l.054.027-3.464 2.598a.939.939 0 0 0-.344.988c.098.367.41.64.789.691l1.828.235-.27.906a.94.94 0 0 0 .29.98l1.214 1.043-.707.606a2.176 2.176 0 0 0-.746 1.933l.04.301-4.954-1.297a1.564 1.564 0 0 0-1.695.645l-.07.105-1.832-3.3Z" fill="url(#a)"/><path d="M14.47 3.52a.944.944 0 0 0-.754-.516.931.931 0 0 0-.836.371l-2.117 2.828-.082-.629a.944.944 0 0 0-.418-.667.928.928 0 0 0-.777-.114l-1.383.41-1.36-1.582a.936.936 0 0 0-1.422 0L3.893 5.285l-1.835-.23a.938.938 0 0 0-1.023 1.164l1.585 6.078-1.2.8a.937.937 0 0 0 .063 1.598l4.176 2.32-4.383 4.383A.937.937 0 0 0 2.6 22.722l4.387-4.379 2.32 4.176a.934.934 0 0 0 1.598.062l.8-1.199 6.078 1.586a.937.937 0 0 0 .856-.203.936.936 0 0 0 .312-.82l-.21-1.672a.323.323 0 0 1 .105-.277l1.535-1.317a.936.936 0 0 0 0-1.422l-1.586-1.359.41-1.383a.936.936 0 0 0-.781-1.195l-.625-.082 2.828-2.12a.94.94 0 0 0-.145-1.59l-1.41-.708a.314.314 0 0 1-.16-.367l.883-3.093a.937.937 0 0 0-1.16-1.16l-3.094.89a.316.316 0 0 1-.367-.16l-.703-1.41ZM8.365 16.965l4.898-4.899a.937.937 0 0 0-1.324-1.324l-4.902 4.894-3.297-1.831.106-.07a1.566 1.566 0 0 0 .644-1.696L3.197 7.086l.965.121a.937.937 0 0 0 .828-.32l1.043-1.215 1.043 1.215a.94.94 0 0 0 .98.289l.906-.27.235 1.828c.047.38.32.692.691.79a.934.934 0 0 0 .989-.344l2.597-3.465.027.055a2.183 2.183 0 0 0 2.555 1.125l1.473-.422-.422 1.472a2.19 2.19 0 0 0 1.125 2.559l.054.027-3.464 2.598a.939.939 0 0 0-.344.988c.098.367.41.64.789.691l1.828.235-.27.906a.94.94 0 0 0 .29.98l1.214 1.043-.707.606a2.176 2.176 0 0 0-.746 1.933l.04.301-4.954-1.297a1.564 1.564 0 0 0-1.695.645l-.07.105-1.832-3.3Z" fill="url(#b)"/><path d="m13.08 3.525-2.117 2.828-.368.492-.08-.61-.082-.628a.694.694 0 0 0-.308-.492.678.678 0 0 0-.568-.082l-1.383.41-.155.046-.105-.123-1.359-1.58v-.001a.686.686 0 0 0-1.042-.002l-.001.001-1.43 1.664-.087.102-.134-.017-1.836-.23a.688.688 0 0 0-.75.853l1.586 6.078.045.172-.148.099-1.2.8v.002a.687.687 0 0 0 .046 1.17l4.175 2.32.29.16-.234.235-4.383 4.383a.687.687 0 0 0 .97.971l4.387-4.38.235-.233.16.289 2.32 4.174 3.557-18.871Zm0 0a.681.681 0 0 1 .612-.272.694.694 0 0 1 .554.378l-1.165-.106ZM8.056 16.92l.133-.133 4.898-4.898a.687.687 0 0 0-.97-.972v.001l-4.903 4.894-.133.133-.165-.091-3.296-1.832-.359-.2.341-.226.106-.07c.466-.313.682-.883.541-1.425L2.955 7.149l-.093-.357.366.046.965.121c.23.029.459-.06.607-.234l1.043-1.216.19-.22.19.22 1.042 1.215a.69.69 0 0 0 .72.212l.906-.27.282-.083.037.292.235 1.828a.685.685 0 0 0 .507.579.684.684 0 0 0 .724-.251V9.03l2.598-3.465.243-.324.18.362.028.055a1.933 1.933 0 0 0 2.262.996l1.473-.421.433-.125-.124.434-.422 1.472-9.292 8.907Zm0 0 .091.165 1.832 3.3.2.36.227-.342.07-.105m-2.42-3.378 2.42 3.378m0 0a1.314 1.314 0 0 1 1.424-.542l-1.424.542Zm7.869-10.018.054.027.362.18-.324.243-3.464 2.597a.689.689 0 0 0-.253.725c.072.268.3.47.58.507h.001l1.827.235.291.037-.084.282-.269.906 1.279-5.74Zm0 0a1.94 1.94 0 0 1-.997-2.267l.997 2.267Zm.37 7.691-.222.19-.707.606a1.926 1.926 0 0 0-.66 1.711l1.588-2.506Zm0 0-.222-.19m.221.19-.22-.19m0 0-1.215-1.042m1.214 1.043-1.215-1.043m0 0a.69.69 0 0 1-.212-.72l.212.72ZM11.9 19.757l4.953 1.297.359.094-.048-.368-.039-.3-5.225-.723Z" stroke="url(#c)" stroke-opacity=".05" stroke-width=".5"/><path d="M35.046 20V6.4h5.28l2.2 6.8.68 2.54.68-2.54 2.2-6.8h5.16V20h-4.08l.26-9.02-1.06 3.7-1.74 5.32h-2.96l-1.78-5.4-1.02-3.58.26 8.98h-4.08Zm22.083-7.24h-3.88c.32-2.46 2.38-4 5.24-4 3.22 0 4.96 1.9 4.96 4.4v4.1c0 1.5.14 2.2.26 2.74h-3.98c-.06-.3-.1-.68-.14-1.14-.8 1.08-1.98 1.52-3.26 1.52-1.92 0-3.48-1.06-3.48-3.16 0-1.46.86-2.62 2.66-3.24 1.36-.48 2.64-.6 4.06-.62v-.26c0-.84-.44-1.24-1.22-1.24-.74 0-1.12.4-1.22.9Zm-.42 4.16c0 .56.38.96 1.06.96.96 0 1.8-.84 1.8-2.1v-.38c-2.22.08-2.86.74-2.86 1.52Zm12.534 7.5h-3.88V9.14h3.88v1c.64-.9 1.5-1.38 2.54-1.38 2.74 0 4.5 2.24 4.5 5.8 0 3.7-1.8 5.82-4.5 5.82-1.06 0-1.92-.46-2.54-1.32v5.36Zm1.54-12.56c-1.02 0-1.54.94-1.54 2.7 0 1.78.52 2.72 1.54 2.72 1 0 1.52-.94 1.52-2.72 0-1.76-.52-2.7-1.52-2.7Zm6.91 8.14V5.6h3.88V20h-3.88Zm16.447-3.58c-.54 2.48-2.68 3.96-5.48 3.96-3.48 0-5.68-2.24-5.68-5.8 0-3.7 2.22-5.82 5.56-5.82 3.38 0 5.52 2.2 5.52 5.8v.84h-7.1c.18 1.28.74 1.96 1.7 1.96.72 0 1.14-.28 1.42-.94h4.06Zm-5.6-4.64c-.8 0-1.3.54-1.52 1.58h3.04c-.22-1.04-.72-1.58-1.52-1.58Z" fill="url(#d)"/><path d="M104.398 11.519c0 3.168 6.881.71 6.881 5.313 0 2.162-1.749 3.366-4.142 3.366-2.409 0-4.059-1.105-4.554-3.366h1.584c.363 1.337 1.37 2.063 2.987 2.063 1.683 0 2.574-.743 2.574-1.865 0-3.432-6.881-.875-6.881-5.412 0-1.617 1.353-3.036 3.828-3.036 2.162 0 3.894 1.04 4.307 3.432h-1.601c-.346-1.485-1.303-2.128-2.739-2.128-1.419 0-2.244.643-2.244 1.633Zm9.018 5.957v-5.082h-1.221v-1.155h1.221V9.225h1.452v2.014h1.931v1.154h-1.931v5.082c0 1.056.314 1.551 1.601 1.551h.297v1.04c-.165.082-.528.132-.941.132-1.633 0-2.409-.875-2.409-2.723Zm6.267-3.383h-1.452c.28-1.93 1.551-3.069 3.696-3.069 2.343 0 3.481 1.37 3.481 3.416v3.448c0 1.006.083 1.633.314 2.112h-1.535c-.165-.346-.214-.858-.231-1.386a3.591 3.591 0 0 1-2.986 1.584c-1.815 0-3.036-.841-3.036-2.508 0-1.205.66-2.079 1.947-2.508 1.188-.396 2.392-.495 4.075-.511v-.198c0-1.42-.66-2.195-2.161-2.195-1.254 0-1.931.693-2.112 1.815Zm-.264 3.564c0 .808.676 1.287 1.699 1.287 1.617 0 2.838-1.27 2.838-2.772v-.413c-3.729.034-4.537.825-4.537 1.898ZM127.954 20v-8.761h1.452v1.352c.594-1.072 1.534-1.567 2.59-1.567.347 0 .66.083.825.215v1.303c-.247-.082-.561-.115-.907-.115-1.749 0-2.508 1.088-2.508 2.673V20h-1.452Zm6.518-2.524v-5.082h-1.221v-1.155h1.221V9.225h1.452v2.014h1.93v1.154h-1.93v5.082c0 1.056.313 1.551 1.6 1.551h.297v1.04c-.165.082-.528.132-.94.132-1.634 0-2.409-.875-2.409-2.723Zm12.503-.33c-.478 2.046-1.947 3.052-3.943 3.052-2.541 0-4.076-1.716-4.076-4.57 0-2.97 1.535-4.604 3.993-4.604 2.475 0 3.96 1.7 3.96 4.488v.363h-6.468c.083 1.963 1.007 3.069 2.591 3.069 1.237 0 2.112-.594 2.425-1.799h1.518Zm-4.026-4.868c-1.402 0-2.244.874-2.458 2.508h4.9c-.198-1.617-1.072-2.508-2.442-2.508Zm6.06 7.722v-8.761h1.452v1.352c.594-1.072 1.535-1.567 2.591-1.567.346 0 .66.083.825.215v1.303c-.248-.082-.561-.115-.908-.115-1.749 0-2.508 1.088-2.508 2.673V20h-1.452Zm9.921 0V8.78h1.518v5.412l5.131-5.412h1.914l-5.28 5.511L167.625 20h-2.046l-5.131-5.379V20h-1.518Zm10.297-9.933V8.12h1.452v1.947h-1.452Zm0 9.933v-8.761h1.452V20h-1.452Zm4.117-2.524v-5.082h-1.221v-1.155h1.221V9.225h1.452v2.014h1.931v1.154h-1.931v5.082c0 1.056.314 1.551 1.601 1.551h.297v1.04c-.165.082-.528.132-.941.132-1.633 0-2.409-.875-2.409-2.723Z" fill="#fff" fill-opacity=".55"/><defs><radialGradient id="a" cx="0" cy="0" r="1" gradientUnits="userSpaceOnUse" gradientTransform="matrix(53.6377 -58.18181 58.18189 53.63777 1 23)"><stop stop-color="#9563FF"/><stop offset="1" stop-color="#9563FF" stop-opacity="0"/></radialGradient><radialGradient id="b" cx="0" cy="0" r="1" gradientUnits="userSpaceOnUse" gradientTransform="matrix(20.9096 -18.63639 18.63632 20.90953 1.91 21.636)"><stop stop-color="#FF7F57"/><stop offset="1" stop-color="#9563FF" stop-opacity="0"/></radialGradient><radialGradient id="d" cx="0" cy="0" r="1" gradientUnits="userSpaceOnUse" gradientTransform="matrix(71.92313 21.99995 -25.3681 82.93442 50.077 8)"><stop stop-color="#fff"/><stop offset="1" stop-color="#fff" stop-opacity=".5"/></radialGradient><linearGradient id="c" x1="11" y1="3" x2="11" y2="23" gradientUnits="userSpaceOnUse"><stop/><stop offset="1" stop-opacity="0"/></linearGradient></defs></svg>