<svg width="1238" height="566" viewBox="0 0 1238 566" fill="none" xmlns="http://www.w3.org/2000/svg">
<path d="M0 318.085C0 302.991 3.02483 288.66 9.09327 275.072C15.1429 261.485 23.2592 249.693 33.4234 239.697C43.5876 229.702 55.593 221.774 69.4771 215.933C83.3425 210.091 98.2975 207.152 114.323 207.152C130.349 207.152 145.398 210.073 159.452 215.933C173.524 221.792 185.736 229.702 196.088 239.697C206.44 249.693 214.65 261.485 220.7 275.072C226.749 288.66 229.793 303.01 229.793 318.085C229.793 333.16 226.768 347.999 220.7 361.387C214.631 374.794 206.421 386.386 196.088 396.2C185.736 406.014 173.524 413.851 159.452 419.693C145.38 425.534 130.331 428.473 114.323 428.473C98.3163 428.473 83.3425 425.552 69.4771 419.693C55.593 413.851 43.5876 406.014 33.4234 396.2C23.2592 386.386 15.1429 374.794 9.09327 361.387C3.02483 347.999 0 333.559 0 318.085ZM16.4205 318.085C16.4205 331.291 18.9568 343.645 24.0483 355.165C29.121 366.685 36.0725 376.68 44.8651 385.17C53.6578 393.66 64.0099 400.372 75.9401 405.27C87.8515 410.187 100.646 412.636 114.342 412.636C128.039 412.636 140.814 410.187 152.744 405.27C164.656 400.372 175.102 393.66 184.101 385.17C193.082 376.68 200.127 366.685 205.2 355.165C210.273 343.664 212.828 331.31 212.828 318.085C212.828 304.86 210.273 292.524 205.2 281.004C200.108 269.503 193.082 259.399 184.101 250.727C175.102 242.056 164.656 235.253 152.744 230.355C140.814 225.457 128.02 222.989 114.342 222.989C100.665 222.989 87.8703 225.457 75.9401 230.355C64.0099 235.271 53.6578 242.056 44.8651 250.727C36.0725 259.417 29.121 269.503 24.0483 281.004C18.9568 292.524 16.4205 304.878 16.4205 318.085Z" fill="#1D2136"/>
<path d="M422.048 207.152C424.002 209.039 425.655 210.744 427.027 212.25C428.398 213.756 430.052 215.461 432.006 217.348C417.144 230.554 403.185 243.289 390.09 255.553C376.995 267.816 363.224 280.551 348.757 293.758L447.242 424.5H427.891C412.654 404.128 397.305 384.136 381.88 364.508C366.436 344.897 351.106 324.888 335.869 304.515C329.218 310.556 322.586 316.688 315.935 322.91C309.284 329.133 302.445 335.282 295.419 341.305V424.5H279.599V0H295.419V320.915C317.306 301.304 338.405 282.347 358.733 264.024C379.043 245.72 400.142 226.763 422.048 207.134V207.152Z" fill="#1D2136"/>
<path d="M475.969 318.085C475.969 302.991 478.9 288.751 484.762 275.344C490.623 261.956 498.721 250.255 509.092 240.26C519.463 230.264 531.562 222.336 545.427 216.495C559.293 210.654 574.248 207.715 590.274 207.715C601.997 207.715 613.138 209.329 623.678 212.522C634.237 215.733 643.894 220.159 652.687 225.819C661.479 231.479 669.107 238.083 675.551 245.629C681.995 253.176 686.974 261.104 690.506 269.394C690.506 259.961 690.694 250.528 691.089 241.094C691.464 231.661 692.066 222.046 692.855 212.232H705.161V424.482H690.506V366.757C683.855 383.737 671.643 398.177 653.87 410.06C636.078 421.942 614.886 428.074 590.274 428.455C574.248 428.455 559.293 425.534 545.427 419.674C531.543 413.833 519.425 405.996 509.092 396.182C498.74 386.368 490.623 374.775 484.762 361.369C478.9 347.981 475.969 333.541 475.969 318.067V318.085ZM492.389 318.085C492.389 331.291 494.926 343.645 500.017 355.165C505.09 366.685 512.041 376.68 520.834 385.17C529.627 393.66 539.979 400.372 551.909 405.27C563.821 410.187 576.615 412.636 590.311 412.636C604.008 412.636 616.877 410.187 628.995 405.27C641.095 400.372 651.653 393.66 660.653 385.17C669.633 376.68 676.679 366.685 681.751 355.165C686.824 343.664 689.379 331.31 689.379 318.085C689.379 304.86 686.824 292.524 681.751 281.004C676.66 269.503 669.633 259.399 660.653 250.727C651.653 242.056 641.113 235.253 628.995 230.355C616.877 225.457 603.989 222.989 590.311 222.989C576.634 222.989 563.839 225.457 551.909 230.355C539.979 235.271 529.627 242.056 520.834 250.727C512.041 259.417 505.09 269.503 500.017 281.004C494.926 292.524 492.389 304.878 492.389 318.085Z" fill="#1D2136"/>
<path d="M798.366 566H779.616C792.11 542.598 804.322 519.305 816.252 496.103C828.164 472.9 840.188 449.589 852.306 426.205L741.515 212.25H759.682C776.873 245.085 794.064 277.902 811.274 310.738C828.464 343.573 845.279 376.59 861.681 409.788C877.707 376.59 894.297 343.573 911.506 310.738C928.697 277.902 945.888 245.085 963.097 212.25H981.265C950.791 271.499 920.299 330.457 889.825 389.125C859.351 447.793 828.859 506.751 798.385 566H798.366Z" fill="#1D2136"/>
<path d="M1008.81 318.085C1008.81 302.991 1011.74 288.751 1017.6 275.344C1023.46 261.956 1031.56 250.255 1041.93 240.26C1052.3 230.264 1064.4 222.336 1078.27 216.495C1092.13 210.654 1107.09 207.715 1123.11 207.715C1134.84 207.715 1145.98 209.329 1156.52 212.522C1167.08 215.733 1176.73 220.159 1185.53 225.819C1194.32 231.479 1201.95 238.083 1208.39 245.629C1214.83 253.176 1219.81 261.104 1223.35 269.394C1223.35 259.961 1223.53 250.528 1223.93 241.094C1224.3 231.661 1224.9 222.046 1225.69 212.232H1238V424.482H1223.35V366.757C1216.69 383.737 1204.48 398.177 1186.71 410.06C1168.92 421.942 1147.72 428.074 1123.11 428.455C1107.09 428.455 1092.13 425.534 1078.27 419.674C1064.38 413.833 1052.26 405.996 1041.93 396.182C1031.58 386.368 1023.46 374.775 1017.6 361.369C1011.74 347.981 1008.81 333.541 1008.81 318.067V318.085ZM1025.23 318.085C1025.23 331.291 1027.76 343.645 1032.86 355.165C1037.93 366.685 1044.88 376.68 1053.67 385.17C1062.47 393.66 1072.82 400.372 1084.75 405.27C1096.66 410.187 1109.45 412.636 1123.15 412.636C1136.85 412.636 1149.72 410.187 1161.83 405.27C1173.93 400.372 1184.49 393.66 1193.49 385.17C1202.47 376.68 1209.52 366.685 1214.59 355.165C1219.66 343.664 1222.22 331.31 1222.22 318.085C1222.22 304.86 1219.66 292.524 1214.59 281.004C1209.5 269.503 1202.47 259.399 1193.49 250.727C1184.49 242.056 1173.95 235.253 1161.83 230.355C1149.72 225.457 1136.83 222.989 1123.15 222.989C1109.47 222.989 1096.68 225.457 1084.75 230.355C1072.82 235.271 1062.47 242.056 1053.67 250.727C1044.88 259.417 1037.93 269.503 1032.86 281.004C1027.76 292.524 1025.23 304.878 1025.23 318.085Z" fill="#1D2136"/>
</svg>
